# xmcd
#
# Track frame offsets:
#	150
#	52538
#	149343
#	180294
#	228750
#	275313
#
# Disc length: 3973 seconds
#
# Revision: 0
# Processed by: cddbd v1.5.2PL0 Copyright (c) Steve Scherf et al.
# Submitted via: audiograbber 1.83.01
#
DISCID=3e0f8306
DTITLE=Grateful Dead - 93-01-25 Oakland Coliseum Arena, Oakland CA
DYEAR=1900
DGENRE=
TTITLE0=Drums
TTITLE1=Space
TTITLE2=All Along The Watchtower
TTITLE3=Wharf Rat
TTITLE4=Around and Around
TTITLE5=Box Of Rain
EXTD=
EXTT0=
EXTT1=
EXTT2=
EXTT3=
EXTT4=
EXTT5=
PLAYORDER=
